PathFileType	4	(X/Y/Z)	./resultDataOpenSim/trcMotMarkerGrf/sub06/qtm-15-02.trc
DataRate	CameraRate	NumFrames	NumMarkers	Units	OrigDataRate	OrigDataStartFrame	OrigNumFrames
250.000000	250.000000	10	24	m	250.000000	69	547
Frame#	Time	L.Toe.Tip			R.Toe.Tip			L.Ankle.Lat			R.Ankle.Lat			L.Ankle.Med			R.Ankle.Med			L.Heel			R.Heel			L.Knee.Lat			R.Knee.Lat			L.Knee.Med			R.Knee.Med			L.Thigh.Upper			R.Thigh.Upper			L.ASIS			R.ASIS			V.Sacral			L.Acromium			R.Acromium			C7			L.Elbow			R.Elbow			L.Wrist.Lat			R.Wrist.Lat
		X1	Y1	Z1	X2	Y2	Z2	X3	Y3	Z3	X4	Y4	Z4	X5	Y5	Z5	X6	Y6	Z6	X7	Y7	Z7	X8	Y8	Z8	X9	Y9	Z9	X10	Y10	Z10	X11	Y11	Z11	X12	Y12	Z12	X13	Y13	Z13	X14	Y14	Z14	X15	Y15	Z15	X16	Y16	Z16	X17	Y17	Z17	X18	Y18	Z18	X19	Y19	Z19	X20	Y20	Z20	X21	Y21	Z21	X22	Y22	Z22	X23	Y23	Z23	X24	Y24	Z24

69	0.272	-1.4432264	0.059099156	-0.07752967	-0.71479934	0.036526386	0.082665051	-1.4279008	0.19079285	-0.10405969	-0.84924402	0.061787277	0.10374433	-1.4082925	0.18822675	-0.022770338	-0.83208813	0.079248424	0.016491311	-1.4659271	0.24687366	-0.045893068	-0.90506536	0.037265908	0.041465232	-1.0925086	0.3742001	-0.13188173	-0.81617953	0.44628307	0.12741832	-1.0887767	0.36462425	-0.011201513	-0.85504996	0.43118296	0.0054050655	-1.0415925	0.75836457	-0.14661038	-0.97388942	0.78728678	0.19306497	-0.95468516	0.8091393	-0.11700612	-0.90558695	0.83725671	0.11875562	-1.1138501	0.90031727	0.030928739	-0.98545687	1.3091597	-0.15961248	-0.9777685	1.2846476	0.20273134	-1.0617856	1.3353631	0.022469402	-0.97754276	0.98212625	-0.22091922	-1.1211567	1.0033633	0.25064292	-0.76667591	0.856354	-0.17627494	-1.0663165	0.77433065	0.29362079
70	0.276	-1.4334274	0.06223636	-0.077272988	-0.71480709	0.036432754	0.082759445	-1.4170145	0.19368995	-0.10362382	-0.8493801	0.06170468	0.10373602	-1.3959311	0.19113994	-0.022693518	-0.83187984	0.079296615	0.016601139	-1.4544143	0.25011872	-0.045376546	-0.90507961	0.037260722	0.041469492	-1.0802376	0.37416739	-0.13245979	-0.81294216	0.44598449	0.12822224	-1.0755689	0.36445106	-0.011726628	-0.85183879	0.43092661	0.0059619173	-1.0343146	0.75965349	-0.14600243	-0.96810389	0.78821935	0.19351277	-0.94767952	0.81059092	-0.11617814	-0.89923494	0.83818006	0.11955226	-1.1090718	0.90198669	0.031124993	-0.97921335	1.3104093	-0.15926829	-0.97091901	1.2857853	0.20312684	-1.0552577	1.3367652	0.023042844	-0.97231623	0.98354654	-0.22030421	-1.1130715	1.0036742	0.25143766	-0.76313003	0.85482876	-0.1770206	-1.0562201	0.77500876	0.29416067
71	0.28	-1.4225539	0.065389168	-0.077031324	-0.714829	0.036356349	0.082852941	-1.4062425	0.19665006	-0.10308908	-0.84967614	0.061562343	0.10369895	-1.3834882	0.19417331	-0.022527673	-0.83168925	0.07936312	0.016715977	-1.4432507	0.25353629	-0.045791915	-0.9050959	0.037259	0.041473286	-1.0678493	0.37424478	-0.1330487	-0.80966368	0.445755	0.12900047	-1.0624758	0.3645933	-0.012173564	-0.84891348	0.43074425	0.006603054	-1.0270861	0.76100686	-0.14542927	-0.96254563	0.78916816	0.19378832	-0.94081909	0.81202877	-0.11560637	-0.89288194	0.83912908	0.12036006	-1.1044676	0.90384505	0.031309893	-0.97302938	1.311711	-0.15897077	-0.96408759	1.2869665	0.20349984	-1.0487307	1.338241	0.023612229	-0.96718235	0.98498676	-0.21970889	-1.1049674	1.004025	0.25223336	-0.75958422	0.85337476	-0.1777934	-1.0460955	0.77573698	0.2946662
72	0.284	-1.4106539	0.068423146	-0.076731826	-0.71486635	0.036295292	0.082955509	-1.3952478	0.19963356	-0.10253832	-0.85004227	0.061384244	0.10365697	-1.3714309	0.19729596	-0.022146034	-0.8315203	0.079444718	0.016831478	-1.4322522	0.25695837	-0.04669371	-0.90511732	0.037260964	0.04147748	-1.0553646	0.37448709	-0.13365922	-0.80657736	0.4455319	0.12969311	-1.0496774	0.36502219	-0.012523118	-0.84623117	0.43065723	0.0072708689	-1.0199235	0.76240843	-0.14492937	-0.95725592	0.79013767	0.19389003	-0.93407796	0.81345199	-0.11523717	-0.88657473	0.84010023	0.12115878	-1.0989734	0.90564027	0.031635014	-0.96689851	1.3130717	-0.15871053	-0.95728959	1.2881984	0.20384988	-1.0422243	1.3397839	0.024173859	-0.96215597	0.98645623	-0.21914374	-1.0968465	1.0044228	0.25303002	-0.75616785	0.85198498	-0.17865205	-1.036021	0.77647491	0.29514413
73	0.288	-1.3977987	0.071261681	-0.076302688	-0.71492254	0.036249794	0.08307243	-1.3838365	0.20256233	-0.10201454	-0.85033581	0.061230086	0.10363603	-1.359812	0.20046086	-0.021542179	-0.83138154	0.079538452	0.016947538	-1.4211646	0.26003523	-0.047294909	-0.90514891	0.037263316	0.041482427	-1.0428306	0.3749204	-0.1342909	-0.80398931	0.44525666	0.13030671	-1.0373041	0.36570422	-0.012755612	-0.84373945	0.43067092	0.007910617	-1.0128175	0.76384428	-0.14450841	-0.95203949	0.79114993	0.1939348	-0.92742459	0.81489721	-0.11495303	-0.88032742	0.84110082	0.12194679	-1.0922867	0.90720436	0.032173226	-0.96081833	1.3144911	-0.15847335	-0.95054165	1.2895003	0.20417811	-1.0357471	1.3413828	0.024728418	-0.95720569	0.9879673	-0.21860168	-1.0886863	1.0048673	0.25384394	-0.75304799	0.85065381	-0.17965196	-1.0260427	0.7772011	0.29560504
74	0.292	-1.3841324	0.073879133	-0.075738056	-0.71500291	0.036219642	0.083204399	-1.3720035	0.2053401	-0.10147074	-0.85051205	0.061129589	0.10364251	-1.3482904	0.20357932	-0.020799486	-0.83128016	0.079639111	0.017064228	-1.4098037	0.26259563	-0.04723704	-0.90519361	0.037263578	0.041489668	-1.0302601	0.37552836	-0.13491375	-0.80194582	0.44493431	0.13090303	-1.0252209	0.36661207	-0.012890573	-0.84140402	0.4307797	0.0085135903	-1.0057488	0.7653126	-0.14414846	-0.94673075	0.79220744	0.19403621	-0.92082331	0.81641418	-0.11464554	-0.87413896	0.84213766	0.12273261	-1.0848156	0.90855849	0.032853222	-0.95479073	1.3159663	-0.15824804	-0.9438549	1.290883	0.2044883	-1.0292997	1.3430205	0.025269816	-0.95230297	0.98953116	-0.21807527	-1.0804291	1.0053542	0.25472813	-0.75021783	0.84939864	-0.18076901	-1.0160323	0.77796657	0.29604657
75	0.296	-1.3698773	0.076260749	-0.075113192	-0.71511118	0.03620277	0.083348187	-1.3597791	0.2078654	-0.10082481	-0.85063097	0.061071952	0.10366673	-1.3365631	0.20650599	-0.01997842	-0.83121985	0.079739333	0.017181378	-1.3981241	0.26472451	-0.046743652	-0.90525198	0.037264328	0.041498972	-1.0176178	0.37629082	-0.13547231	-0.80022856	0.44461675	0.13155453	-1.013074	0.36773514	-0.012986769	-0.83921954	0.43096989	0.0091274749	-0.99870482	0.76682222	-0.14383063	-0.9412975	0.79331261	0.19424088	-0.91422304	0.81803807	-0.11424702	-0.86800714	0.84320421	0.12352109	-1.0770299	0.90983373	0.033539693	-0.94882024	1.3174943	-0.15803447	-0.93723328	1.2923427	0.20478223	-1.0228842	1.3446866	0.025784997	-0.94744075	0.99115524	-0.21755594	-1.0720114	1.0058841	0.25575848	-0.74750391	0.84824526	-0.18191899	-1.0057656	0.77886005	0.2964493
76	0.3	-1.3552472	0.078384204	-0.074499131	-0.71524631	0.036195443	0.083499729	-1.3471418	0.21006634	-0.10009428	-0.85076442	0.061037913	0.10369863	-1.324659	0.20907675	-0.019063006	-0.8312004	0.079833906	0.017303301	-1.3861968	0.26658347	-0.046213405	-0.90532404	0.037270601	0.04150718	-1.0049152	0.37720537	-0.13593084	-0.79859087	0.44434168	0.13232278	-1.0006371	0.36906404	-0.013078623	-0.83718895	0.43122276	0.0098007771	-0.99167803	0.76838548	-0.1435496	-0.93575375	0.79448871	0.19456099	-0.90758354	0.81976408	-0.11374489	-0.86194056	0.84429932	0.1243158	-1.0692961	0.91116657	0.034135933	-0.94291026	1.3190718	-0.15783482	-0.93067933	1.2938757	0.20506056	-1.0165088	1.3463807	0.026262514	-0.94262531	0.9928444	-0.21703562	-1.0634255	1.0064683	0.2569778	-0.74479373	0.8472026	-0.18305104	-0.99515856	0.77992459	0.29680108
77	0.304	-1.3403728	0.080232589	-0.073908436	-0.71540321	0.036195029	0.083658349	-1.3340768	0.21193109	-0.099414211	-0.8509584	0.061014124	0.1037352	-1.3126889	0.21121381	-0.018053916	-0.83121895	0.079924379	0.017437705	-1.3741148	0.26824007	-0.04584489	-0.90540922	0.037284737	0.041514242	-0.99223045	0.37826688	-0.13629277	-0.79689494	0.4441072	0.13318061	-0.98792766	0.37056889	-0.013156109	-0.83530338	0.43151969	0.010513117	-0.98465602	0.77001182	-0.14331218	-0.9301071	0.79574864	0.19499001	-0.90091792	0.82155093	-0.11319153	-0.85595524	0.84543767	0.12512898	-1.0618924	0.91263258	0.034609983	-0.93705725	1.3206969	-0.15764132	-0.92419617	1.2954814	0.20532588	-1.0101817	1.3480968	0.026698575	-0.93786663	0.99460335	-0.21651565	-1.0547383	1.0071181	0.25834044	-0.742112	0.84626873	-0.18417586	-0.98430744	0.78115579	0.29711489
78	0.308	-1.3253151	0.081806685	-0.073335679	-0.715575	0.036203202	0.083825392	-1.3207128	0.21348563	-0.098836973	-0.85123621	0.060993283	0.10378147	-1.3003435	0.21301884	-0.017120215	-0.83127157	0.080015251	0.017588974	-1.3618891	0.26960958	-0.045535194	-0.90550473	0.037306181	0.041525299	-0.97960162	0.37946172	-0.13657332	-0.79508853	0.44389306	0.13397825	-0.97504513	0.37221043	-0.013193892	-0.83353072	0.431841	0.011179046	-0.97762434	0.77170468	-0.14312618	-0.92432924	0.79707154	0.19550416	-0.89426721	0.82335747	-0.11263979	-0.85005919	0.84662094	0.12597109	-1.0548853	0.91422215	0.034980117	-0.93125019	1.3223706	-0.15744234	-0.9177869	1.2971575	0.20558012	-1.0039057	1.3498191	0.027096193	-0.93317715	0.99643426	-0.21601303	-1.04606	1.0078266	0.25967842	-0.73951799	0.84544126	-0.18532346	-0.97333495	0.78254517	0.297414
